<svg fill="#0B996E" version="1.1" viewBox="0 0 26 26" xmlns="http://www.w3.org/2000/svg">
<path d="m13 0a13 13 0 0 0-13 13 13 13 0 0 0 13 13 13 13 0 0 0 13-13 13 13 0 0 0-13-13m-5.2 5.2h6.2259c2.535 0 4.2196 1.5232 4.2196 3.809 0 1.1072-0.377 2.0172-1.1808 2.8037 1.5568 0.98367 2.4353 2.509 2.4353 4.2044 0 3.0983-2.86 5.434-6.6777 5.434h-5.0234v-16.25zm2.2588 2.1147v5.9984h0.07582c0.25242-0.468 0.9295-0.86233 2.4364-1.3282 2.2089-0.71392 3.2901-1.6467 3.2901-2.8763 0-1.0812-0.82984-1.794-2.0843-1.794zm5.2758 5.7048c-0.82984 0.41708-1.8092 0.81034-2.99 1.2025-1.3314 0.41925-2.2858 1.5015-2.2858 2.6076v2.5079h2.5621c2.5859 0 4.4947-1.4517 4.4947-3.4179 0-1.1559-0.67708-2.2609-1.7821-2.9001z" stroke-width="1.0834"/>
</svg>
