<svg version="1.1" viewBox="0 0 512 512" xml:space="preserve" xmlns="http://www.w3.org/2000/svg">
<rect x="89.445" y="345.3" width="210.98" height="166.7" fill="#F4DA49"/>
<path d="m64.554 347.68c-32.51-32.311-52.17-81.922-52.17-131.3-2e-3 -119.5 96.877-216.38 216.38-216.38 108.49 0 198.71 79.779 213.97 183.96 5.029 34.331 38 46.697 53.939 75.863 8.698 15.916-2.937 35.339-21.075 35.339h-31.157v109.65c0 26.457-21.448 47.905-47.904 47.905h-112.69c-15.677 0-30.362-7.67-39.318-20.537l-21.399-30.744c-8.887-12.768-23.416-20.424-38.973-20.536-38.33-0.276-93.189-6.966-119.61-33.223z" fill="#E69824"/>
<g fill="#444">
<rect x="89.445" y="426.51" width="64.833" height="35.721"/>
<rect x="376.78" y="351.26" width="67.659" height="35.721"/>
</g>
<circle cx="187.75" cy="184.86" r="85.574" fill="#F4DA49"/>
<g fill="#444">
<path d="m102.18 184.86c0 47.261 38.313 85.574 85.574 85.574v-85.574h-85.574z"/>
<path d="m187.75 99.282v85.574h85.574c0-47.261-38.313-85.574-85.574-85.574z"/>
</g>
</svg>
