<svg width="800px" height="800px" version="1.1" viewBox="0 0 512 512" xml:space="preserve" xmlns="http://www.w3.org/2000/svg">
<g transform="translate(-.00021054 53.116)">
<path d="m431.94 88.352v291.16c0 2.162-0.289 4.184-0.794 6.202-0.072 0-0.072 0.072-0.072 0.144-1.009 3.823-2.957 7.357-5.698 10.241-4.255 4.833-10.458 8.007-17.382 8.223h-0.072c-0.289 0.072-0.577 0.072-0.866 0.072h-380.81c-3.967 0-7.645-0.938-10.963-2.597-4.904-2.451-8.871-6.418-11.324-11.322-1.154-2.308-1.947-4.833-2.308-7.501-0.216-1.155-0.288-2.309-0.288-3.462v-291.16c0-13.703 11.251-24.955 24.883-24.955h380.81c13.631 0 24.882 11.252 24.882 24.955z" fill="#c2b95f"/>
<path d="m431.94 88.352v291.16c0 2.162-0.289 4.184-0.794 6.202-0.072 0-0.072 0.072-0.072 0.144-1.009 3.823-2.957 7.357-5.698 10.241-4.255 4.833-10.458 8.007-17.382 8.223h-0.072c-0.289 0.072-0.577 0.072-0.866 0.072h-380.81c-3.967 0-7.645-0.938-10.963-2.597-4.904-2.451-8.871-6.418-11.324-11.322-1.154-2.308-1.947-4.833-2.308-7.501-0.216-1.155-0.288-2.309-0.288-3.462v-291.16c0-13.703 11.251-24.955 24.883-24.955h380.81c13.631 0 24.882 11.252 24.882 24.955z" fill="#5f85c2"/>
<path d="m216.51 141.8h-183.05c-3.39 0-6.563-0.433-9.665-1.227-12.91-3.101-22.43-12.549-22.43-23.657v-92.028c0-13.705 14.497-24.884 32.095-24.884h99.459l37.36 63.397 13.271 22.43 12.549 21.35z" fill="#5f85c2"/>
<path d="m26.266 381.98c-1.327 0-2.489-1.162-2.489-2.489v-291.18c0-1.327 1.162-2.489 2.489-2.489h380.77c1.327 0 2.489 1.162 2.489 2.489v291.18c0 1.327-1.162 2.489-2.489 2.489z" fill="#fff"/>
<path d="m510.63 128.81c0.072 0.072 0 0.072 0 0.144l-2.02 6.635-10.314 33.394-11.035 35.701-10.314 33.32-11.035 35.703-10.241 33.392-23.801 76.883c-0.217 0.578-0.505 1.153-0.722 1.731-0.072 0-0.072 0.072-0.072 0.144l-0.144 0.144c0 0.072-0.072 0.217-0.144 0.289-4.039 8.149-12.982 15.073-22.503 17.959-0.144 0-0.216 0.072-0.288 0.072h-0.072c-3.174 0.937-6.275 1.442-9.376 1.442h-380.74c-12.549 0-19.834-8.221-17.309-18.751 0.144-1.011 0.505-2.02 0.865-3.03l0.288-1.009 22.142-71.62 52.362-169.56 3.967-12.838c4.616-11.974 19.618-21.782 33.321-21.782h380.74c13.632 1e-3 21.061 9.736 16.445 21.638z" fill="#89c6de"/>
<polygon points="301.26 273.72 465.94 273.72 455.64 307.1 301.26 307.1" fill="#fbe1e2" opacity=".5"/>
<polygon points="324.78 204.66 487.27 204.66 476.96 238.04 324.78 238.04" fill="#fbe1e2" opacity=".5"/>
<path d="m510.63 128.81c0.072 0.072 0 0.072 0 0.144l-2.02 6.635-10.314 33.394-11.035 35.701-10.314 33.32-11.035 35.703-10.241 33.392-23.801 76.883c-0.217 0.578-0.505 1.153-0.722 1.731-0.072 0-0.072 0.072-0.072 0.144l-0.144 0.144c0 0.072-0.072 0.217-0.144 0.289-1.01 3.678-2.885 7.068-5.409 9.808-4.255 4.761-10.314 7.79-17.093 8.151-0.144 0-0.216 0.072-0.288 0.072h-0.072c-3.174 0.937-6.275 1.442-9.376 1.442h-345.47l23.8-23.801 274.79-274.79 21.348-21.35 22.431-22.43h11.612c13.632 0 24.883 11.252 24.883 24.955v18.825h62.242c13.632 2e-3 21.061 9.737 16.445 21.639z" fill="#040000" opacity=".06"/>
</g>
</svg>
