<svg viewBox="0 0 300 300" xmlns="http://www.w3.org/2000/svg">
<path d="M 246.429688 21.429688 L 53.570312 21.429688 C 35.816406 21.429688 21.429688 35.816406 21.429688 53.570312 L 21.429688 246.429688 C 21.429688 264.191406 35.816406 278.570312 53.570312 278.570312 L 246.429688 278.570312 C 264.191406 278.570312 278.570312 264.191406 278.570312 246.429688 L 278.570312 53.570312 C 278.570312 35.816406 264.191406 21.429688 246.429688 21.429688 Z M 184.273438 68.5625 C 184.273438 63.847656 188.132812 59.988281 192.867188 59.988281 C 197.582031 59.988281 201.4375 63.847656 201.4375 68.5625 L 201.4375 183.074219 C 201.4375 187.8125 197.582031 191.65625 192.867188 191.65625 C 188.121094 191.65625 184.273438 187.8125 184.273438 183.074219 Z M 141.429688 64.222656 C 141.429688 59.507812 145.253906 55.660156 150 55.660156 C 154.746094 55.660156 158.570312 59.507812 158.570312 64.222656 L 158.570312 188.527344 C 158.570312 193.242188 154.746094 197.101562 150 197.101562 C 145.253906 197.101562 141.429688 193.242188 141.429688 188.527344 Z M 98.570312 68.5625 C 98.570312 63.847656 102.417969 59.988281 107.132812 59.988281 C 111.878906 59.988281 115.726562 63.847656 115.726562 68.5625 L 115.726562 183.074219 C 115.726562 187.8125 111.867188 191.65625 107.132812 191.65625 C 102.417969 191.65625 98.570312 187.8125 98.570312 183.074219 Z M 55.703125 85.714844 C 55.703125 80.980469 59.5625 77.144531 64.296875 77.144531 C 69.011719 77.144531 72.855469 80.980469 72.855469 85.714844 L 72.855469 162.804688 C 72.855469 167.527344 69.011719 171.375 64.296875 171.375 C 59.550781 171.375 55.703125 167.519531 55.703125 162.804688 Z M 241.285156 216.449219 C 239.96875 217.574219 208.222656 244.230469 150 244.230469 C 91.789062 244.230469 60.03125 217.597656 58.703125 216.449219 C 55.113281 213.363281 54.6875 207.964844 57.78125 204.363281 C 60.835938 200.785156 66.246094 200.347656 69.835938 203.398438 C 70.339844 203.839844 98.6875 227.089844 149.988281 227.089844 C 201.933594 227.089844 229.875 203.667969 230.121094 203.441406 C 233.699219 200.347656 239.109375 200.765625 242.207031 204.363281 C 245.304688 207.964844 244.886719 213.363281 241.285156 216.449219 Z M 244.296875 162.804688 C 244.296875 167.527344 240.4375 171.375 235.714844 171.375 C 230.988281 171.375 227.132812 167.519531 227.132812 162.804688 L 227.132812 85.714844 C 227.132812 80.980469 231 77.144531 235.714844 77.144531 C 240.4375 77.144531 244.296875 80.96875 244.296875 85.714844 Z M 244.296875 162.804688 "/>
</svg>