<svg version="1.1" viewBox="0 0 50 50" xmlns="http://www.w3.org/2000/svg">
<g transform="matrix(1.042 0 0 1.042 7.6678e-7 11.152)">
<path d="m10.891 14.794c-0.3685 0.7371-1.4203 0.7371-1.7888 0l-0.88136-1.7627c-0.14077-0.2815-0.14077-0.6129 0-0.8944l0.88136-1.7627c0.36853-0.7371 1.4203-0.7371 1.7888 0l0.8814 1.7627c0.1407 0.2815 0.1407 0.6129 0 0.8944zm0 9.9971c-0.3685 0.737-1.4203 0.737-1.7888 0l-0.88136-1.7628c-0.14077-0.2815-0.14077-0.6129 0-0.8944l0.88136-1.7627c0.36853-0.7371 1.4203-0.7371 1.7888 0l0.8814 1.7627c0.1407 0.2815 0.1407 0.6129 0 0.8944z" fill="#1d4aff"/>
<path d="m0 20.997c0-0.8909 1.0771-1.3371 1.7071-0.7071l4.5834 4.5834c0.62997 0.63 0.1838 1.7071-0.7071 1.7071h-4.5834c-0.55228 0-1-0.4477-1-1zm0-4.8278c0 0.2652 0.10536 0.5196 0.29289 0.7071l9.4112 9.4112c0.18753 0.1875 0.44189 0.2929 0.70709 0.2929h5.1692c0.8909 0 1.3371-1.0771 0.7071-1.7071l-14.58-14.58c-0.62997-0.63-1.7071-0.1838-1.7071 0.7071zm0-9.997c0 0.26521 0.10536 0.51957 0.29289 0.7071l19.408 19.408c0.1875 0.1875 0.4419 0.2929 0.7071 0.2929h5.1692c0.8909 0 1.3371-1.0771 0.7071-1.7071l-24.577-24.577c-0.62996-0.62996-1.7071-0.1838-1.7071 0.7071zm9.997 0c0 0.26521 0.1054 0.51957 0.2929 0.7071l17.994 17.994c0.63 0.63 1.7071 0.1838 1.7071-0.7071v-5.1692c0-0.2652-0.1054-0.5196-0.2929-0.7071l-17.994-17.994c-0.63-0.62996-1.7071-0.18379-1.7071 0.70711zm11.704-5.8763c-0.63-0.62997-1.7071-0.1838-1.7071 0.7071v5.1692c0 0.26521 0.1054 0.51957 0.2929 0.7071l7.997 7.997c0.63 0.63 1.7071 0.1838 1.7071-0.7071v-5.1692c0-0.2652-0.1054-0.5196-0.2929-0.7071z" fill="#f9bd2b"/>
<path d="m42.525 21.12-9.4127-9.4127c-0.63-0.63-1.7071-0.1838-1.7071 0.7071v13.166c0 0.5523 0.4477 1 1 1h14.581c0.5523 0 1-0.4477 1-1v-1.199c0-0.5523-0.4496-0.9934-0.9973-1.0647-1.6807-0.2188-3.2528-0.9864-4.4635-2.1971zm-6.3213 2.2618c-0.8829 0-1.5995-0.7166-1.5995-1.5996 0-0.8829 0.7166-1.5995 1.5995-1.5995 0.883 0 1.5996 0.7166 1.5996 1.5995 0 0.883-0.7166 1.5996-1.5996 1.5996z"/>
<path d="m0 25.58c0 0.5523 0.44772 1 1 1h4.5834c0.8909 0 1.3371-1.0771 0.70711-1.7071l-4.5834-4.5834c-0.62997-0.63-1.7071-0.1838-1.7071 0.7071zm9.997-16.995-8.2899-8.2899c-0.62997-0.62997-1.7071-0.1838-1.7071 0.7071v5.1692c0 0.26521 0.10536 0.51957 0.29289 0.7071l9.7041 9.7041zm-8.2899 1.7071c-0.62997-0.63-1.7071-0.1838-1.7071 0.7071v5.1692c0 0.2652 0.10536 0.5196 0.29289 0.7071l9.7041 9.7041v-7.9976z" fill="#1d4aff"/>
<path d="m19.994 8.9998c0-0.2652-0.1053-0.5196-0.2929-0.7071l-7.997-7.997c-0.6299-0.62997-1.7071-0.1838-1.7071 0.7071v5.1692c0 0.26521 0.10539 0.51957 0.29289 0.7071l9.7041 9.7041zm-9.997 17.58h5.5834c0.8909 0 1.3371-1.0771 0.7071-1.7071l-6.2905-6.2905zm0-17.995v7.5834c0 0.2652 0.10539 0.5196 0.29289 0.7071l9.7041 9.7041v-7.5834c0-0.2652-0.1053-0.5196-0.2929-0.7071z" fill="#f54e00"/>
</g>
</svg>
